<svg xmlns="http://www.w3.org/2000/svg" width="552.3" height="554.489" viewBox="0 0 552.3 554.489"><g transform="translate(-55 -1562.08)"><path d="M246.485,26.15C163.636,25.927,85.3,69.612,44.138,141.926,1.049,217.628,7.064,312.991,42.76,390.464,76.489,463.683,141.5,521.449,221.046,539.009c75.433,16.654,159.58-5.326,220.572-51.821,28.748-21.921,52.82-49.371,72.12-79.873,8.768-13.862,18.013-28.535,23.036-44.254,5.559-17.38,7.836-35.939,9.387-54.058,2.656-30.985,4.361-65.672-9.507-94.364-9.364-19.377-22.051-37.47-33.755-55.486-11.674-17.969-23.825-35.662-37.124-52.48C417.483,45.588,345.063-7.781,262.93,2.965c-41.724,5.456-79.534,29.757-115.1,50.722C112.85,74.309,78.3,98.311,55.52,132.671c-11.808,17.81-20.073,37.646-27.563,57.576C19.781,212,11.349,233.933,6,256.583-4.4,300.651,3.772,344.266,24.485,384.076c36.332,69.833,102.993,125.476,177.849,149.457,73.918,23.685,156.385,14.238,222.676-26.4,68.782-42.164,114.644-117.267,121.747-197.556,13.712-155.016-115.24-299.058-269.65-307.16C199.554-1.659,128.3,32.166,79.921,92.492c-52.27,65.18-69.184,150.023-57.09,231.734,6.518,44.011,20.8,86.8,41.029,126.391,18.073,35.363,41.861,66.115,78.921,82.616,32.773,14.591,69.494,17.979,104.993,17.543,39.93-.493,78.029-6.165,115.646-19.93,37.567-13.745,74.424-32.616,106.062-57.24,12.45-9.694,23.462-20.779,31.571-34.391,8.192-13.748,13.911-28.921,20.453-43.489,6.4-14.261,15.732-27.69,20.975-42.413,5.226-14.664,3.582-30.852,3.592-46.142.02-33.439,1.654-69.544-9.1-101.691-5.786-17.29-18.3-32.094-29.67-46.025-14.161-17.35-29.591-33.608-45-49.84-.965-1.019-6.069-.839-4.667.636,15.7,16.538,31.445,33.093,45.786,50.849,10.925,13.525,22.8,27.753,28.392,44.461,10.246,30.642,9,65.153,8.971,97.054-.013,14.447,1.481,29.667-1.751,43.851-3.139,13.765-12.017,25.769-18.053,38.362-12.623,26.345-21.308,54.87-42.7,75.782-26.661,26.062-62.57,44.9-96.488,59.6-37.919,16.428-76.784,25.979-118.066,27.876-39.251,1.8-80.622.186-117.07-16-37.83-16.8-61.355-48.9-79.384-84.983-36.987-74.025-53.945-160.652-35.669-242.3,15.516-69.3,58.519-133.106,119.84-169.83C287.8-46.673,462.307,43.56,520.383,179.459c31.648,74.064,28.988,159.6-9.584,230.516-38.006,69.883-107.01,118.162-185.452,130.975-80.25,13.109-160.662-14.231-222.044-66.2C42.993,423.693-6.887,344.745,9.974,262.961c4.338-21.015,11.894-41.222,19.251-61.325C36.7,181.207,44.411,160.7,55.463,141.883c20.033-34.114,51.411-58.752,84.58-79.3,34.364-21.295,72.1-45.689,111.778-55.053,43.861-10.35,89.644,2.244,127.62,24.8,36.215,21.515,65.389,52.866,90.356,86.4,12.067,16.2,23.236,33.049,34.1,50.07,10.047,15.739,21.065,31.438,28.808,48.485,12.6,27.756,10.692,61.5,8.162,91.222-1.391,16.388-3.515,32.953-7.856,48.851-4.4,16.075-13.1,30.679-21.758,44.8-36.345,59.231-90.359,105.226-157,126.478-43.379,13.838-90.423,18.212-135.013,7.69-39.151-9.241-75.5-29.2-105.476-55.869-61.485-54.7-94.038-138-94.607-219.487C18.592,179.652,59.744,101.926,130.21,60.148A229.353,229.353,0,0,1,247.7,28.324c3.619.01,1.072-2.167-1.212-2.174" transform="translate(58.468 1565.755)" fill="#00ef88"/><path d="M240.825,22.473c-33.885-11.4-67.14,3.825-92.8,26.035-30.413,26.328-56.768,58.469-79.6,91.455C21.335,208-17.53,288.628,8.206,372.363,53.009,518.178,230.376,573.937,364.6,526.1c136.338-48.605,216.2-203.106,178.262-342.736C523.125,110.705,473.155,47.546,403.3,17.653,335.313-11.435,257.37-2.49,191.9,29.264,131.325,58.638,79.69,108.238,51.931,169.973c-31.408,69.86-27.68,152.187,7.021,220.176,66.957,131.2,238.851,189.887,367.986,114.294,62.986-36.874,102.936-100.386,109.54-173.039,7.28-80.123-21.987-160.689-70.662-223.638C422.939,52.31,358.412,3.878,285.006,7.37c-71.418,3.4-138.785,51.4-182.663,105.193C57.71,167.286,30.579,237.4,31.022,308.348c.233,37.1,7.913,74.567,25.017,107.666,17.49,33.841,44.993,60.193,77.443,79.684,64.154,38.535,146.455,59.787,219.687,36.857C423.3,510.608,482.723,450.588,520.359,389.1c19.095-31.192,29.963-69.657,12.9-104.184-.662-1.338-5.832-.879-5.123.556,17.83,36.075,4.657,76.032-15.929,107.836A422.715,422.715,0,0,1,442.569,475.1c-26.069,23.755-56.178,43.742-89.833,54.877-40.772,13.5-84.717,12.017-125.989,1.551C155.03,513.341,84.467,471.9,54.584,401.43c-26.867-63.345-22.5-137.3,1.924-200.649C79.877,140.166,121.974,86.724,176,50.539,208.332,28.878,246.148,11.4,285.516,9.513c39.241-1.887,77.217,12.993,109.118,35,115.3,79.517,183.6,260.945,103.542,386.794C462.366,487.6,399.983,524.686,334.447,534.25c-75.14,10.969-152.9-16.308-209.261-66.142-54.664-48.332-87.809-117.953-89.5-191.065C34.151,210.555,60.2,147.283,104.794,98.451,150.326,48.595,213.169,14.427,280.063,4.58,359.1-7.054,437.11,23.994,487.679,85.7c88.1,107.493,73.5,269.038-19.364,368.555-98.921,106.009-275.229,116.571-385.406,21.8C25.439,426.627-7.467,349.9,9.028,274.3c8.262-37.853,26.588-73.3,46.6-106.182a559.559,559.559,0,0,1,68.858-90.815c28.129-30.143,67.184-68.615,112.576-53.339,1.262.423,6.308-.636,3.762-1.495" transform="translate(55 1562.079)" fill="#00ef88"/></g></svg>