<svg xmlns="http://www.w3.org/2000/svg" width="319.8" height="320.7" viewBox="0 0 319.8 320.7">
  <g id="Calque_2" data-name="Calque 2">
    <g id="Calque_1-2" data-name="Calque 1">
      <g>
        <path id="Tracé_52" data-name="Tracé 52" d="M192.3,258.8a4,4,0,0,0,0-8,4,4,0,0,0,0,8h0" style="fill: #fed03b"/>
        <path id="Tracé_53" data-name="Tracé 53" d="M187.4,129.1a4,4,0,0,0,4-4,4,4,0,0,0-8,0,4,4,0,0,0,4,4h0" style="fill: #fed03b"/>
        <path id="Tracé_54" data-name="Tracé 54" d="M193.4,282.6a4,4,0,1,0-4-4,4,4,0,0,0,4,4" style="fill: #fed03b"/>
        <path id="Tracé_55" data-name="Tracé 55" d="M188.7,149.6a4,4,0,0,0,0-8,3.9,3.9,0,0,0-3.9,4h0a3.9,3.9,0,0,0,3.9,4" style="fill: #fed03b"/>
        <path id="Tracé_56" data-name="Tracé 56" d="M191.4,236.7a4,4,0,1,0-4-4,4,4,0,0,0,4,4" style="fill: #fed03b"/>
        <path id="Tracé_57" data-name="Tracé 57" d="M210.7,201a4,4,0,1,0-4-4,4,4,0,0,0,4,4h0" style="fill: #fed03b"/>
        <path id="Tracé_58" data-name="Tracé 58" d="M198.5,300.9a4,4,0,1,0-4-6.9,3.9,3.9,0,0,0-1.4,5.4h0a4,4,0,0,0,5.4,1.5" style="fill: #fed03b"/>
        <path id="Tracé_59" data-name="Tracé 59" d="M194.5,316.2a4,4,0,1,0-4-6.9,3.9,3.9,0,0,0-1.4,5.4h0a4,4,0,0,0,5.4,1.5" style="fill: #fed03b"/>
        <path id="Tracé_60" data-name="Tracé 60" d="M208.5,159.8a4,4,0,1,0-4-4,4,4,0,0,0,4,4h0" style="fill: #fed03b"/>
        <path id="Tracé_61" data-name="Tracé 61" d="M211.7,180.7a4,4,0,1,0-4.7-6.4,4,4,0,0,0-.8,5.5,3.9,3.9,0,0,0,5.5.9" style="fill: #fed03b"/>
        <path id="Tracé_62" data-name="Tracé 62" d="M205.9,137.5a3.9,3.9,0,0,0,4-3.9,4,4,0,0,0-8,0h0a3.9,3.9,0,0,0,4,3.9" style="fill: #fed03b"/>
        <path id="Tracé_63" data-name="Tracé 63" d="M204.1,14.5a4,4,0,0,0,0-8,3.9,3.9,0,0,0-3.9,4h0a3.9,3.9,0,0,0,3.9,4" style="fill: #fed03b"/>
        <path id="Tracé_64" data-name="Tracé 64" d="M205.4,115.3a4,4,0,1,0-4-4,4,4,0,0,0,4,4" style="fill: #fed03b"/>
        <path id="Tracé_65" data-name="Tracé 65" d="M204.2,35.7a4,4,0,1,0-4-4,4,4,0,0,0,4,4h0" style="fill: #fed03b"/>
        <path id="Tracé_66" data-name="Tracé 66" d="M190.6,169.8a4,4,0,1,0-4-4,4,4,0,0,0,4,4" style="fill: #fed03b"/>
        <path id="Tracé_67" data-name="Tracé 67" d="M170.6,62.6a4,4,0,1,0-4-4h0a4,4,0,0,0,4,4" style="fill: #fed03b"/>
        <path id="Tracé_68" data-name="Tracé 68" d="M164.2,96.7a4,4,0,0,0,8,0,4,4,0,0,0-8,0h0" style="fill: #fed03b"/>
        <path id="Tracé_69" data-name="Tracé 69" d="M170,16.4a4,4,0,1,0,4,4h0a4,4,0,0,0-4-4" style="fill: #fed03b"/>
        <path id="Tracé_70" data-name="Tracé 70" d="M167.8,0a4,4,0,1,0,4,4h0a4,4,0,0,0-4-4" style="fill: #fed03b"/>
        <path id="Tracé_71" data-name="Tracé 71" d="M171.7,82a3.9,3.9,0,0,0,4-3.9,4,4,0,0,0-8,0h0a3.9,3.9,0,0,0,4,3.9" style="fill: #fed03b"/>
        <path id="Tracé_72" data-name="Tracé 72" d="M173.3,153.6a3.9,3.9,0,0,0-4,3.9,4,4,0,0,0,8,0,3.9,3.9,0,0,0-4-3.9h0" style="fill: #fed03b"/>
        <path id="Tracé_73" data-name="Tracé 73" d="M172.2,35.2a3.9,3.9,0,0,0-4,3.9,4,4,0,0,0,8,0h0a3.9,3.9,0,0,0-4-3.9" style="fill: #fed03b"/>
        <path id="Tracé_74" data-name="Tracé 74" d="M173.3,215a4,4,0,1,0,4,4,4,4,0,0,0-4-4h0" style="fill: #fed03b"/>
        <path id="Tracé_75" data-name="Tracé 75" d="M178.3,293a4,4,0,1,0-4-4,4,4,0,0,0,4,4" style="fill: #fed03b"/>
        <path id="Tracé_76" data-name="Tracé 76" d="M174.3,269.9a4,4,0,1,0-4-4,4,4,0,0,0,4,4" style="fill: #fed03b"/>
        <path id="Tracé_77" data-name="Tracé 77" d="M173.3,246.7a4,4,0,1,0-4-4,4,4,0,0,0,4,4" style="fill: #fed03b"/>
        <path id="Tracé_78" data-name="Tracé 78" d="M177.4,311a4,4,0,0,0,1.4-5.5,4,4,0,0,0-6.9,4,4.1,4.1,0,0,0,5.5,1.5h0" style="fill: #fed03b"/>
        <path id="Tracé_79" data-name="Tracé 79" d="M169,201.4a4,4,0,0,0,5.6-.8,4.1,4.1,0,0,0-.8-5.6,4,4,0,0,0-5.6.9h0a4,4,0,0,0,.8,5.5h0" style="fill: #fed03b"/>
        <path id="Tracé_80" data-name="Tracé 80" d="M170.6,139.9a4,4,0,1,0-4-4h0a4,4,0,0,0,4,4" style="fill: #fed03b"/>
        <path id="Tracé_81" data-name="Tracé 81" d="M171.4,181.4a3.9,3.9,0,0,0,4-3.9,4,4,0,0,0-8,0h0a3.9,3.9,0,0,0,4,3.9h0" style="fill: #fed03b"/>
        <path id="Tracé_82" data-name="Tracé 82" d="M225.8,145.9a3.9,3.9,0,0,0,4-3.9,4,4,0,0,0-8,0h0a3.9,3.9,0,0,0,4,3.9" style="fill: #fed03b"/>
        <path id="Tracé_83" data-name="Tracé 83" d="M241.7,133.6a4,4,0,1,0-4-4h0a4,4,0,0,0,4,4" style="fill: #fed03b"/>
        <path id="Tracé_84" data-name="Tracé 84" d="M239,107.3a4,4,0,1,0,4-4h0a4,4,0,0,0-4,4h0" style="fill: #fed03b"/>
        <path id="Tracé_85" data-name="Tracé 85" d="M246.1,155a4,4,0,0,0-4.7-6.4,4,4,0,1,0,4.7,6.4" style="fill: #fed03b"/>
        <path id="Tracé_86" data-name="Tracé 86" d="M231.8,294.8a4,4,0,0,0-1.5,5.4,4.1,4.1,0,0,0,5.5,1.5,4,4,0,0,0,1.4-5.5,3.9,3.9,0,0,0-5.4-1.4h0" style="fill: #fed03b"/>
        <path id="Tracé_87" data-name="Tracé 87" d="M257,34.2a4,4,0,1,0,4,4,4,4,0,0,0-4-4h0" style="fill: #fed03b"/>
        <path id="Tracé_88" data-name="Tracé 88" d="M241.7,83.1a4,4,0,1,0,4,4h0a4,4,0,0,0-4-4h0" style="fill: #fed03b"/>
        <path id="Tracé_89" data-name="Tracé 89" d="M243,66.5a4,4,0,0,0-8,0,4,4,0,0,0,4,4h0a4,4,0,0,0,4-4" style="fill: #fed03b"/>
        <path id="Tracé_90" data-name="Tracé 90" d="M235.9,274.2a4,4,0,0,0-5.5-1.4,4,4,0,0,0,4,6.9,4.1,4.1,0,0,0,1.5-5.5h0" style="fill: #fed03b"/>
        <path id="Tracé_91" data-name="Tracé 91" d="M246.2,245.4a4,4,0,1,0,4-4,4,4,0,0,0-4,4h0" style="fill: #fed03b"/>
        <path id="Tracé_92" data-name="Tracé 92" d="M248.9,226a4,4,0,0,0,4-4,3.9,3.9,0,0,0-4-3.9A3.8,3.8,0,0,0,245,222a3.9,3.9,0,0,0,3.9,4" style="fill: #fed03b"/>
        <path id="Tracé_93" data-name="Tracé 93" d="M253.7,290.5a4,4,0,1,0-4-6.9,4,4,0,0,0,4,6.9h0" style="fill: #fed03b"/>
        <path id="Tracé_94" data-name="Tracé 94" d="M251.4,53.6a3.9,3.9,0,0,0,3.9,4,4,4,0,0,0,0-8,3.9,3.9,0,0,0-3.9,4h0" style="fill: #fed03b"/>
        <path id="Tracé_95" data-name="Tracé 95" d="M246.4,178.1a4,4,0,1,0-4-4,4,4,0,0,0,4,4" style="fill: #fed03b"/>
        <path id="Tracé_96" data-name="Tracé 96" d="M247.7,204a4,4,0,1,0-4-4,4,4,0,0,0,4,4h0" style="fill: #fed03b"/>
        <path id="Tracé_97" data-name="Tracé 97" d="M224.2,124a4,4,0,1,0-4-4h0a4,4,0,0,0,4,4h0" style="fill: #fed03b"/>
        <path id="Tracé_98" data-name="Tracé 98" d="M221.8,59.6a4,4,0,1,0-4-4h0a4,4,0,0,0,4,4" style="fill: #fed03b"/>
        <path id="Tracé_99" data-name="Tracé 99" d="M231.4,259.8a4,4,0,0,0,4-4,3.9,3.9,0,0,0-4-3.9,4,4,0,0,0-4,4,3.9,3.9,0,0,0,4,3.9h0" style="fill: #fed03b"/>
        <path id="Tracé_100" data-name="Tracé 100" d="M217.8,310.1a4,4,0,0,0,1.4-5.5,4,4,0,0,0-6.9,4h0a4,4,0,0,0,5.5,1.5h0" style="fill: #fed03b"/>
        <path id="Tracé_101" data-name="Tracé 101" d="M214.4,292.1a4,4,0,0,0,1.5-5.4,4,4,0,1,0-6.9,4,3.9,3.9,0,0,0,5.4,1.4h0" style="fill: #fed03b"/>
        <path id="Tracé_102" data-name="Tracé 102" d="M254.8,263.9a4,4,0,1,0-6.9,4,3.9,3.9,0,0,0,5.4,1.4h0a4,4,0,0,0,1.5-5.4" style="fill: #fed03b"/>
        <path id="Tracé_103" data-name="Tracé 103" d="M211.8,269.9a4,4,0,1,0-4-4,4,4,0,0,0,4,4" style="fill: #fed03b"/>
        <path id="Tracé_104" data-name="Tracé 104" d="M223.4,102a4,4,0,1,0-4-4h0a4,4,0,0,0,4,4" style="fill: #fed03b"/>
        <path id="Tracé_105" data-name="Tracé 105" d="M229.8,206.3a4,4,0,1,0,4,4,4,4,0,0,0-4-4h0" style="fill: #fed03b"/>
        <path id="Tracé_106" data-name="Tracé 106" d="M228.7,167.9a4,4,0,0,0,.8-5.6,3.9,3.9,0,0,0-5.5-.9,4,4,0,0,0-.9,5.6h0a4,4,0,0,0,5.6.9" style="fill: #fed03b"/>
        <path id="Tracé_107" data-name="Tracé 107" d="M229.8,235.6a4,4,0,1,0-4-4h0a4,4,0,0,0,4,4" style="fill: #fed03b"/>
        <path id="Tracé_108" data-name="Tracé 108" d="M233.8,46.4a3.9,3.9,0,0,0,3.9,4,4,4,0,0,0,0-8h0a3.9,3.9,0,0,0-3.9,4" style="fill: #fed03b"/>
        <path id="Tracé_109" data-name="Tracé 109" d="M228.9,189.4a4,4,0,1,0-4-4,4,4,0,0,0,4,4" style="fill: #fed03b"/>
        <path id="Tracé_110" data-name="Tracé 110" d="M239,21.8a4,4,0,1,0,4,4,4,4,0,0,0-4-4" style="fill: #fed03b"/>
        <path id="Tracé_111" data-name="Tracé 111" d="M210.9,223.7a4,4,0,1,0-4-4,4,4,0,0,0,4,4" style="fill: #fed03b"/>
        <path id="Tracé_112" data-name="Tracé 112" d="M188.7,42.3a4,4,0,0,0,0,8,4,4,0,0,0,0-8h0" style="fill: #fed03b"/>
        <path id="Tracé_113" data-name="Tracé 113" d="M134.1,183.7a4,4,0,0,0,4-4,3.9,3.9,0,0,0-4-3.9,3.8,3.8,0,0,0-3.9,3.9h0a3.9,3.9,0,0,0,3.9,4" style="fill: #fed03b"/>
        <path id="Tracé_114" data-name="Tracé 114" d="M131.4,98.7a3.9,3.9,0,0,0,3.9,4,4,4,0,0,0,0-8,3.9,3.9,0,0,0-3.9,4h0" style="fill: #fed03b"/>
        <path id="Tracé_115" data-name="Tracé 115" d="M135.3,153.6a3.8,3.8,0,0,0-3.9,3.9,3.9,3.9,0,0,0,3.9,4,4,4,0,0,0,4-4h0a3.9,3.9,0,0,0-4-3.9" style="fill: #fed03b"/>
        <path id="Tracé_116" data-name="Tracé 116" d="M135.8,17.3a4,4,0,1,0,4,4h0a4,4,0,0,0-4-4h0" style="fill: #fed03b"/>
        <path id="Tracé_117" data-name="Tracé 117" d="M139,1.4a4,4,0,1,0,4,4h0a4,4,0,0,0-4-4" style="fill: #fed03b"/>
        <path id="Tracé_118" data-name="Tracé 118" d="M135.3,203.1a3.9,3.9,0,0,0,4-3.9,4,4,0,0,0-4-4,3.9,3.9,0,0,0-3.9,4h0a3.8,3.8,0,0,0,3.9,3.9" style="fill: #fed03b"/>
        <path id="Tracé_119" data-name="Tracé 119" d="M135.3,131.9a4,4,0,0,0,0,8,4,4,0,0,0,4-4h0a4,4,0,0,0-4-4h0" style="fill: #fed03b"/>
        <path id="Tracé_120" data-name="Tracé 120" d="M137.5,84a3.9,3.9,0,0,0,4-3.9,4,4,0,0,0-4-4,3.9,3.9,0,0,0-3.9,4,3.8,3.8,0,0,0,3.9,3.9" style="fill: #fed03b"/>
        <path id="Tracé_121" data-name="Tracé 121" d="M143.8,308.8a4,4,0,0,0,0-8,4,4,0,0,0,0,8" style="fill: #fed03b"/>
        <path id="Tracé_122" data-name="Tracé 122" d="M153.8,164.7a3.9,3.9,0,0,0-4,3.9,4,4,0,0,0,8,0,3.9,3.9,0,0,0-4-3.9h0" style="fill: #fed03b"/>
        <path id="Tracé_123" data-name="Tracé 123" d="M150.7,229.3a4,4,0,1,0,4-4h0a4,4,0,0,0-4,4" style="fill: #fed03b"/>
        <path id="Tracé_124" data-name="Tracé 124" d="M140.2,290.3a4,4,0,1,0-4-4,4,4,0,0,0,4,4h0" style="fill: #fed03b"/>
        <path id="Tracé_125" data-name="Tracé 125" d="M139.8,267.8a4,4,0,1,0-4-4,4,4,0,0,0,4,4h0" style="fill: #fed03b"/>
        <path id="Tracé_126" data-name="Tracé 126" d="M138.1,244.3a4,4,0,1,0-4-4,4,4,0,0,0,4,4h0" style="fill: #fed03b"/>
        <path id="Tracé_127" data-name="Tracé 127" d="M133.4,222.9a4,4,0,0,0,5.6-.8,4.1,4.1,0,0,0-.8-5.6,4,4,0,0,0-5.6.9h0a4,4,0,0,0,.8,5.5h0" style="fill: #fed03b"/>
        <path id="Tracé_128" data-name="Tracé 128" d="M10.9,209.3a4.2,4.2,0,1,0,.4-8.3,4.2,4.2,0,0,0-4.4,4,2.5,2.5,0,0,0,.1.8,8.8,8.8,0,0,0,.5,1.5,3.8,3.8,0,0,0,3.4,2" style="fill: #fed03b"/>
        <path id="Tracé_129" data-name="Tracé 129" d="M137.3,58.2a4,4,0,0,0-1.4,5.5,4,4,0,0,0,6.9-4,4.1,4.1,0,0,0-5.5-1.5h0" style="fill: #fed03b"/>
        <path id="Tracé_130" data-name="Tracé 130" d="M138.1,36.9a3.9,3.9,0,0,0-4,3.9,4,4,0,0,0,8,0h0a3.9,3.9,0,0,0-4-3.9" style="fill: #fed03b"/>
        <path id="Tracé_131" data-name="Tracé 131" d="M315.6,180.3a4,4,0,1,0-4-4,4,4,0,0,0,4,4h0" style="fill: #fed03b"/>
        <path id="Tracé_132" data-name="Tracé 132" d="M315.8,156.7a4,4,0,0,0,0-8,4,4,0,0,0,0,8h0" style="fill: #fed03b"/>
        <path id="Tracé_133" data-name="Tracé 133" d="M316.8,129.1a4,4,0,1,0-4,4,4,4,0,0,0,4-4" style="fill: #fed03b"/>
        <path id="Tracé_134" data-name="Tracé 134" d="M134.1,121.2a4,4,0,0,0,0-8,4,4,0,0,0,0,8h0" style="fill: #fed03b"/>
        <path id="Tracé_135" data-name="Tracé 135" d="M206.4,66.5a4,4,0,1,0,4,4h0a4,4,0,0,0-4-4" style="fill: #fed03b"/>
        <path id="Tracé_136" data-name="Tracé 136" d="M219.4,76.3a4,4,0,1,0,4-4h0a4,4,0,0,0-4,4" style="fill: #fed03b"/>
        <path id="Tracé_137" data-name="Tracé 137" d="M205.4,86a4,4,0,1,0,4,4h0a4,4,0,0,0-4-4" style="fill: #fed03b"/>
        <path id="Tracé_138" data-name="Tracé 138" d="M221.8,40.8a3.9,3.9,0,0,0,4-3.9,4,4,0,1,0-8,0,3.9,3.9,0,0,0,4,3.9" style="fill: #fed03b"/>
        <path id="Tracé_139" data-name="Tracé 139" d="M221.8,20.4a4,4,0,1,0-4-4,4,4,0,0,0,4,4h0" style="fill: #fed03b"/>
        <path id="Tracé_140" data-name="Tracé 140" d="M211.8,238.5a4,4,0,1,0,4,4h0a4,4,0,0,0-4-4" style="fill: #fed03b"/>
        <path id="Tracé_141" data-name="Tracé 141" d="M206.4,46.3a4,4,0,1,0,4,4h0a4,4,0,0,0-4-4" style="fill: #fed03b"/>
        <path id="Tracé_142" data-name="Tracé 142" d="M186.6,106.2a4,4,0,1,0-4-4,4,4,0,0,0,4,4h0" style="fill: #fed03b"/>
        <path id="Tracé_143" data-name="Tracé 143" d="M186,10a3.9,3.9,0,0,0,4-3.9,4,4,0,1,0-8,0h0a3.9,3.9,0,0,0,4,3.9" style="fill: #fed03b"/>
        <path id="Tracé_144" data-name="Tracé 144" d="M192.7,85.3a4,4,0,0,0-4-4,4,4,0,0,0,0,8,4,4,0,0,0,4-4h0" style="fill: #fed03b"/>
        <path id="Tracé_145" data-name="Tracé 145" d="M192.3,211.9a3.9,3.9,0,0,0,3.9-4,3.8,3.8,0,0,0-3.9-3.9,3.9,3.9,0,0,0-4,3.9,4,4,0,0,0,4,4h0" style="fill: #fed03b"/>
        <path id="Tracé_146" data-name="Tracé 146" d="M187.4,69.6a3.9,3.9,0,0,0,4-3.9,4,4,0,0,0-8,0,3.9,3.9,0,0,0,4,3.9h0" style="fill: #fed03b"/>
        <path id="Tracé_147" data-name="Tracé 147" d="M194.6,189.5a4.1,4.1,0,0,0-.8-5.6,4,4,0,0,0-4.8,6.4h0a4,4,0,0,0,5.6-.8h0" style="fill: #fed03b"/>
        <path id="Tracé_148" data-name="Tracé 148" d="M154.7,141.6a4,4,0,1,0,4,4h0a4,4,0,0,0-4-4" style="fill: #fed03b"/>
        <path id="Tracé_149" data-name="Tracé 149" d="M147.7,88.7a4,4,0,0,0,8,0,4,4,0,0,0-4-4h0a4,4,0,0,0-4,4" style="fill: #fed03b"/>
        <path id="Tracé_150" data-name="Tracé 150" d="M155.7,45.6a4,4,0,0,0,0,8,3.9,3.9,0,0,0,3.9-4h0a3.9,3.9,0,0,0-3.9-4" style="fill: #fed03b"/>
        <path id="Tracé_151" data-name="Tracé 151" d="M152.6,14.5a4,4,0,1,0-4-4h0a4,4,0,0,0,4,4" style="fill: #fed03b"/>
        <path id="Tracé_152" data-name="Tracé 152" d="M153.8,35.2a4,4,0,1,0-4-4h0a4,4,0,0,0,4,4" style="fill: #fed03b"/>
        <path id="Tracé_153" data-name="Tracé 153" d="M156.3,125.1a4,4,0,1,0-4,4h0a4,4,0,0,0,4-4" style="fill: #fed03b"/>
        <path id="Tracé_154" data-name="Tracé 154" d="M155.7,65.7a3.9,3.9,0,0,0-4,3.9,4,4,0,0,0,4,4,3.9,3.9,0,0,0,3.9-4h0a3.8,3.8,0,0,0-3.9-3.9" style="fill: #fed03b"/>
        <path id="Tracé_155" data-name="Tracé 155" d="M157.5,280.7a4,4,0,1,0-4-4,4,4,0,0,0,4,4h0" style="fill: #fed03b"/>
        <path id="Tracé_156" data-name="Tracé 156" d="M173.3,116a4,4,0,0,0-4-4,4,4,0,0,0,0,8h0a4,4,0,0,0,4-4" style="fill: #fed03b"/>
        <path id="Tracé_157" data-name="Tracé 157" d="M160.1,303.2a4,4,0,1,0-4-4,4,4,0,0,0,4,4" style="fill: #fed03b"/>
        <path id="Tracé_158" data-name="Tracé 158" d="M160,320.7a4,4,0,1,0-4-4,4,4,0,0,0,4,4h0" style="fill: #fed03b"/>
        <path id="Tracé_159" data-name="Tracé 159" d="M128.3,317.8a4,4,0,1,0-4-4,4,4,0,0,0,4,4h0" style="fill: #fed03b"/>
        <path id="Tracé_160" data-name="Tracé 160" d="M154.7,257.2a3.9,3.9,0,0,0,4-3.9,4,4,0,0,0-8,0h0a3.9,3.9,0,0,0,4,3.9" style="fill: #fed03b"/>
        <path id="Tracé_161" data-name="Tracé 161" d="M150,212.5a3.9,3.9,0,0,0,5.5-.8,4,4,0,1,0-6.4-4.7h0a3.9,3.9,0,0,0,.9,5.5h0" style="fill: #fed03b"/>
        <path id="Tracé_162" data-name="Tracé 162" d="M147.7,107.3a4,4,0,1,0,4-4h0a4,4,0,0,0-4,4" style="fill: #fed03b"/>
        <path id="Tracé_163" data-name="Tracé 163" d="M150.7,191.7a4,4,0,1,0-4-4h0a4,4,0,0,0,4,4h0" style="fill: #fed03b"/>
        <path id="Tracé_164" data-name="Tracé 164" d="M188.7,21.1a4,4,0,0,0,0,8,4,4,0,0,0,0-8h0" style="fill: #fed03b"/>
        <path id="Tracé_165" data-name="Tracé 165" d="M101.9,242.7a4,4,0,1,0,0-8,3.9,3.9,0,0,0-3.9,4h0a3.9,3.9,0,0,0,3.9,4" style="fill: #fed03b"/>
        <path id="Tracé_166" data-name="Tracé 166" d="M100.2,160.1a4,4,0,0,0,4-4,4,4,0,0,0-8,0h0a4,4,0,0,0,4,4" style="fill: #fed03b"/>
        <path id="Tracé_167" data-name="Tracé 167" d="M101.9,215.4a3.8,3.8,0,0,0-3.9,3.9,3.9,3.9,0,0,0,3.9,4,4,4,0,0,0,4-4,3.9,3.9,0,0,0-4-3.9h0" style="fill: #fed03b"/>
        <path id="Tracé_168" data-name="Tracé 168" d="M101.3,202.2a4,4,0,1,0-4-4,4,4,0,0,0,4,4h0" style="fill: #fed03b"/>
        <path id="Tracé_169" data-name="Tracé 169" d="M108.2,80.7a4,4,0,1,0-4,4,4,4,0,0,0,4-4h0" style="fill: #fed03b"/>
        <path id="Tracé_170" data-name="Tracé 170" d="M101.3,11.5a4,4,0,1,0,4,4h0a4,4,0,0,0-4-4h0" style="fill: #fed03b"/>
        <path id="Tracé_171" data-name="Tracé 171" d="M105.3,35.9a4,4,0,1,0-4,4,4,4,0,0,0,4-4h0" style="fill: #fed03b"/>
        <path id="Tracé_172" data-name="Tracé 172" d="M101,96.7a4,4,0,1,0,4,4,4,4,0,0,0-4-4h0" style="fill: #fed03b"/>
        <path id="Tracé_173" data-name="Tracé 173" d="M47.2,205.4a3.9,3.9,0,0,0-4,3.9,4,4,0,0,0,8,0,3.9,3.9,0,0,0-4-3.9" style="fill: #fed03b"/>
        <path id="Tracé_174" data-name="Tracé 174" d="M47.2,183.7a4,4,0,1,0,4,4,4,4,0,0,0-4-4" style="fill: #fed03b"/>
        <path id="Tracé_175" data-name="Tracé 175" d="M47.2,161.8a4,4,0,1,0,4,4,4,4,0,0,0-4-4" style="fill: #fed03b"/>
        <path id="Tracé_176" data-name="Tracé 176" d="M103.7,264.6a3.9,3.9,0,0,0,4-3.9,4,4,0,0,0-8,0h0a3.9,3.9,0,0,0,4,3.9" style="fill: #fed03b"/>
        <path id="Tracé_177" data-name="Tracé 177" d="M104.5,288.7a4,4,0,0,0,0-8,4,4,0,0,0,0,8h0" style="fill: #fed03b"/>
        <path id="Tracé_178" data-name="Tracé 178" d="M109.6,58.6a3.9,3.9,0,0,0-3.9-4,4,4,0,0,0,0,8,3.9,3.9,0,0,0,3.9-4h0" style="fill: #fed03b"/>
        <path id="Tracé_179" data-name="Tracé 179" d="M51.2,146a4,4,0,1,0-4,4h0a4,4,0,0,0,4-4" style="fill: #fed03b"/>
        <path id="Tracé_180" data-name="Tracé 180" d="M84.7,140.5a4,4,0,1,0,4,4h0a4,4,0,0,0-4-4" style="fill: #fed03b"/>
        <path id="Tracé_181" data-name="Tracé 181" d="M82.7,169.8a4,4,0,1,0-4-4,4,4,0,0,0,4,4h0" style="fill: #fed03b"/>
        <path id="Tracé_182" data-name="Tracé 182" d="M83.5,232.7a4,4,0,1,0-4-4,4,4,0,0,0,4,4h0" style="fill: #fed03b"/>
        <path id="Tracé_183" data-name="Tracé 183" d="M80.1,207.5a4,4,0,0,0,8,0,3.9,3.9,0,0,0-4-3.9h0a3.9,3.9,0,0,0-4,3.9" style="fill: #fed03b"/>
        <path id="Tracé_184" data-name="Tracé 184" d="M84.7,112a4,4,0,1,0-4-4,4,4,0,0,0,4,4h0" style="fill: #fed03b"/>
        <path id="Tracé_185" data-name="Tracé 185" d="M89.7,187.1a4,4,0,1,0-4,4h0a4,4,0,0,0,4-4" style="fill: #fed03b"/>
        <path id="Tracé_186" data-name="Tracé 186" d="M86.7,253.5a3.9,3.9,0,0,0,3.9-4,3.8,3.8,0,0,0-3.9-3.9,3.9,3.9,0,0,0-4,3.9h0a4,4,0,0,0,4,4" style="fill: #fed03b"/>
        <path id="Tracé_187" data-name="Tracé 187" d="M84.6,294.3a3.9,3.9,0,0,0-4,3.9,4,4,0,0,0,8,0,3.9,3.9,0,0,0-4-3.9h0" style="fill: #fed03b"/>
        <path id="Tracé_188" data-name="Tracé 188" d="M98,125.1a3.8,3.8,0,0,0,3.9-3.9,3.9,3.9,0,0,0-3.9-4,4,4,0,0,0-4,4,3.9,3.9,0,0,0,4,3.9h0" style="fill: #fed03b"/>
        <path id="Tracé_189" data-name="Tracé 189" d="M101.9,132.6a3.8,3.8,0,0,0-3.9,3.9,3.9,3.9,0,0,0,3.9,4,4,4,0,0,0,4-4,3.9,3.9,0,0,0-4-3.9h0" style="fill: #fed03b"/>
        <path id="Tracé_190" data-name="Tracé 190" d="M82.7,46.3a4,4,0,0,0,4,4,4,4,0,0,0,0-8h0a4,4,0,0,0-4,4h0" style="fill: #fed03b"/>
        <path id="Tracé_191" data-name="Tracé 191" d="M86.2,267.8a4,4,0,1,0,0,8,3.9,3.9,0,0,0,3.9-4h0a3.9,3.9,0,0,0-3.9-4" style="fill: #fed03b"/>
        <path id="Tracé_192" data-name="Tracé 192" d="M88.7,84a4,4,0,1,0,0,8,4,4,0,0,0,0-8h0" style="fill: #fed03b"/>
        <path id="Tracé_193" data-name="Tracé 193" d="M101.9,175.2a3.9,3.9,0,0,0-3.9,4,3.8,3.8,0,0,0,3.9,3.9,3.9,3.9,0,0,0,4-3.9h0a4,4,0,0,0-4-4" style="fill: #fed03b"/>
        <path id="Tracé_194" data-name="Tracé 194" d="M94.6,68.1a4,4,0,0,0-4-4,4,4,0,0,0,0,8,4,4,0,0,0,4-4h0" style="fill: #fed03b"/>
        <path id="Tracé_195" data-name="Tracé 195" d="M4,162.2a3.9,3.9,0,0,0-4,3.9,4,4,0,0,0,8,0H8a3.9,3.9,0,0,0-4-3.9" style="fill: #fed03b"/>
        <path id="Tracé_196" data-name="Tracé 196" d="M17.3,102.4a3.9,3.9,0,0,0-5.5-.9,3.9,3.9,0,1,0,4.6,6.4h0a3.9,3.9,0,0,0,.9-5.5" style="fill: #fed03b"/>
        <path id="Tracé_197" data-name="Tracé 197" d="M12.7,181.4a4,4,0,0,0,0,8,4,4,0,0,0,4-4,3.9,3.9,0,0,0-4-4" style="fill: #fed03b"/>
        <path id="Tracé_198" data-name="Tracé 198" d="M12,125.1a3.9,3.9,0,0,0-4-3.9,3.9,3.9,0,0,0-4,3.9,4,4,0,0,0,8,0" style="fill: #fed03b"/>
        <path id="Tracé_199" data-name="Tracé 199" d="M14.1,141.6a3.9,3.9,0,0,0-5.5-.9,4,4,0,0,0-.9,5.6,3.9,3.9,0,0,0,5.5.9h0a4,4,0,0,0,.9-5.6" style="fill: #fed03b"/>
        <path id="Tracé_200" data-name="Tracé 200" d="M49.1,233.2a4,4,0,1,0-4.4-3.4h0a3.9,3.9,0,0,0,4.4,3.4" style="fill: #fed03b"/>
        <path id="Tracé_201" data-name="Tracé 201" d="M52.6,252.3a4,4,0,1,0-4-4h0a4,4,0,0,0,4,4" style="fill: #fed03b"/>
        <path id="Tracé_202" data-name="Tracé 202" d="M36.6,261.5a4,4,0,1,0-4-4,4,4,0,0,0,4,4" style="fill: #fed03b"/>
        <path id="Tracé_203" data-name="Tracé 203" d="M52.6,126.5a4,4,0,0,0-8,0,4,4,0,0,0,8,0h0" style="fill: #fed03b"/>
        <path id="Tracé_204" data-name="Tracé 204" d="M281.7,203.2a4,4,0,0,0,4-4,4,4,0,0,0-8,0,4,4,0,0,0,4,4h0" style="fill: #fed03b"/>
        <path id="Tracé_205" data-name="Tracé 205" d="M55.2,63.2a3.9,3.9,0,0,0-4,3.9,4,4,0,0,0,8,0,3.9,3.9,0,0,0-4-3.9" style="fill: #fed03b"/>
        <path id="Tracé_206" data-name="Tracé 206" d="M38.7,57.5a3.9,3.9,0,0,0-4,3.9,4,4,0,0,0,4,4,3.9,3.9,0,0,0,3.9-4,3.8,3.8,0,0,0-3.9-3.9h0" style="fill: #fed03b"/>
        <path id="Tracé_207" data-name="Tracé 207" d="M47.2,271.8a4,4,0,1,0,4-4h0a4,4,0,0,0-4,4" style="fill: #fed03b"/>
        <path id="Tracé_208" data-name="Tracé 208" d="M35.6,135a3.9,3.9,0,1,0-6.4,4.6,3.9,3.9,0,0,0,5.5.9h0a3.9,3.9,0,0,0,.9-5.5" style="fill: #fed03b"/>
        <path id="Tracé_209" data-name="Tracé 209" d="M26.7,177.1a4,4,0,1,0,4-4h0a4,4,0,0,0-4,4" style="fill: #fed03b"/>
        <path id="Tracé_210" data-name="Tracé 210" d="M37.5,80.7a4,4,0,1,0-4-4,4,4,0,0,0,4,4h0" style="fill: #fed03b"/>
        <path id="Tracé_211" data-name="Tracé 211" d="M51.2,112a4,4,0,1,0-4-4,4,4,0,0,0,4,4" style="fill: #fed03b"/>
        <path id="Tracé_212" data-name="Tracé 212" d="M52.2,90a4,4,0,0,0,4-4,4,4,0,0,0-8,0,4,4,0,0,0,4,4h0" style="fill: #fed03b"/>
        <path id="Tracé_213" data-name="Tracé 213" d="M22,91.1a4,4,0,0,0,4-4,3.9,3.9,0,0,0-3.9-4,4,4,0,0,0-4,4,3.9,3.9,0,0,0,3.9,4h0" style="fill: #fed03b"/>
        <path id="Tracé_214" data-name="Tracé 214" d="M28.4,115.3a4,4,0,0,0-4,4,4,4,0,0,0,8,0,4,4,0,0,0-4-4" style="fill: #fed03b"/>
        <path id="Tracé_215" data-name="Tracé 215" d="M34.1,242.1a4,4,0,1,0-4.5-3.5,4,4,0,0,0,4.5,3.5h0" style="fill: #fed03b"/>
        <path id="Tracé_216" data-name="Tracé 216" d="M34.7,92.8a3.9,3.9,0,0,0-4,3.9,4,4,0,0,0,4,4,3.9,3.9,0,0,0,3.9-4h0a3.8,3.8,0,0,0-3.9-3.9" style="fill: #fed03b"/>
        <path id="Tracé_217" data-name="Tracé 217" d="M22.7,157.2a4,4,0,1,0,4-4h0a4,4,0,0,0-4,4" style="fill: #fed03b"/>
        <path id="Tracé_218" data-name="Tracé 218" d="M31.5,221.3a4,4,0,1,0-4-4h0a4,4,0,0,0,4,4" style="fill: #fed03b"/>
        <path id="Tracé_219" data-name="Tracé 219" d="M18.9,230.2a3.9,3.9,0,0,0,3.9-4,3.8,3.8,0,0,0-3.9-3.9,3.9,3.9,0,0,0-4,3.9h0a4,4,0,0,0,4,4" style="fill: #fed03b"/>
        <path id="Tracé_220" data-name="Tracé 220" d="M27.5,202.2a4,4,0,1,0-4-4,4,4,0,0,0,4,4" style="fill: #fed03b"/>
        <path id="Tracé_221" data-name="Tracé 221" d="M69.7,263.8a4,4,0,0,0,4-4,4,4,0,0,0-8,0h0a4,4,0,0,0,4,4" style="fill: #fed03b"/>
        <path id="Tracé_222" data-name="Tracé 222" d="M279.7,155.2a4,4,0,1,0-4-4,4,4,0,0,0,4,4h0" style="fill: #fed03b"/>
        <path id="Tracé_223" data-name="Tracé 223" d="M292.1,98a4,4,0,1,0-4-4,4,4,0,0,0,4,4" style="fill: #fed03b"/>
        <path id="Tracé_224" data-name="Tracé 224" d="M295.4,120.9a4,4,0,1,0-5.5-.9h0a3.9,3.9,0,0,0,5.5.9" style="fill: #fed03b"/>
        <path id="Tracé_225" data-name="Tracé 225" d="M281.7,181.4a3.9,3.9,0,0,0,4-3.9,4,4,0,0,0-8,0h0a3.9,3.9,0,0,0,4,3.9h0" style="fill: #fed03b"/>
        <path id="Tracé_226" data-name="Tracé 226" d="M287.7,219a4,4,0,1,0-4,4h0a4,4,0,0,0,4-4" style="fill: #fed03b"/>
        <path id="Tracé_227" data-name="Tracé 227" d="M302.9,231.3a4,4,0,0,0-4-4,4,4,0,0,0,0,8h0a4,4,0,0,0,4-4h0" style="fill: #fed03b"/>
        <path id="Tracé_228" data-name="Tracé 228" d="M297.6,144.5a4,4,0,0,0,0-8,3.9,3.9,0,0,0-3.9,4h0a3.9,3.9,0,0,0,3.9,4h0" style="fill: #fed03b"/>
        <path id="Tracé_229" data-name="Tracé 229" d="M285.2,241a4,4,0,1,0-4-6.9,4,4,0,0,0,4,6.9h0" style="fill: #fed03b"/>
        <path id="Tracé_230" data-name="Tracé 230" d="M294.1,73.6a4,4,0,1,0-4,4,4,4,0,0,0,4-4" style="fill: #fed03b"/>
        <path id="Tracé_231" data-name="Tracé 231" d="M299.2,167.8a4,4,0,0,0,0-8,4,4,0,0,0,0,8h0" style="fill: #fed03b"/>
        <path id="Tracé_232" data-name="Tracé 232" d="M300.9,190.9a4,4,0,0,0,0-8,3.9,3.9,0,0,0-3.9,4,3.9,3.9,0,0,0,3.9,4h0" style="fill: #fed03b"/>
        <path id="Tracé_233" data-name="Tracé 233" d="M311.6,201.6a4,4,0,1,0-4-4,4,4,0,0,0,4,4h0" style="fill: #fed03b"/>
        <path id="Tracé_234" data-name="Tracé 234" d="M299.2,214.3a4,4,0,0,0,0-8,4,4,0,0,0,0,8h0" style="fill: #fed03b"/>
        <path id="Tracé_235" data-name="Tracé 235" d="M263.5,143.1a4,4,0,1,0-5.6-.8,4.1,4.1,0,0,0,5.6.8h0" style="fill: #fed03b"/>
        <path id="Tracé_236" data-name="Tracé 236" d="M118.1,113.6a4,4,0,0,0,0-8,4,4,0,0,0,0,8h0" style="fill: #fed03b"/>
        <path id="Tracé_237" data-name="Tracé 237" d="M265.2,214.3a4,4,0,1,0-4-4,4,4,0,0,0,4,4" style="fill: #fed03b"/>
        <path id="Tracé_238" data-name="Tracé 238" d="M263.9,192.3a4,4,0,1,0-4-4,4,4,0,0,0,4,4h0" style="fill: #fed03b"/>
        <path id="Tracé_239" data-name="Tracé 239" d="M262.8,167.1a4,4,0,1,0-4-4,4,4,0,0,0,4,4h0" style="fill: #fed03b"/>
        <path id="Tracé_240" data-name="Tracé 240" d="M261,121.2a4,4,0,1,0-4-4,4,4,0,0,0,4,4h0" style="fill: #fed03b"/>
        <path id="Tracé_241" data-name="Tracé 241" d="M259.3,98a4,4,0,1,0-4-4,4,4,0,0,0,4,4" style="fill: #fed03b"/>
        <path id="Tracé_242" data-name="Tracé 242" d="M266.8,235.6a4,4,0,1,0-4-4,4,4,0,0,0,4,4" style="fill: #fed03b"/>
        <path id="Tracé_243" data-name="Tracé 243" d="M284.4,258.5a4,4,0,1,0-4-4,4,4,0,0,0,4,4" style="fill: #fed03b"/>
        <path id="Tracé_244" data-name="Tracé 244" d="M269.9,276.7a4,4,0,0,0,1.4-5.5,4,4,0,0,0-6.9,4,4.1,4.1,0,0,0,5.5,1.5h0" style="fill: #fed03b"/>
        <path id="Tracé_245" data-name="Tracé 245" d="M271.3,250.7a4,4,0,0,0-6.9,4,4.1,4.1,0,0,0,5.5,1.5h0a4,4,0,0,0,1.4-5.5h0" style="fill: #fed03b"/>
        <path id="Tracé_246" data-name="Tracé 246" d="M275.2,51.1a4,4,0,1,0,4,4,4,4,0,0,0-4-4h0" style="fill: #fed03b"/>
        <path id="Tracé_247" data-name="Tracé 247" d="M277,108.7a4,4,0,1,0-4-4h0a4,4,0,0,0,4,4" style="fill: #fed03b"/>
        <path id="Tracé_248" data-name="Tracé 248" d="M306.3,110.3a4,4,0,0,0,4-4,3.9,3.9,0,0,0-4-3.9,3.8,3.8,0,0,0-3.9,3.9,3.9,3.9,0,0,0,3.9,4" style="fill: #fed03b"/>
        <path id="Tracé_249" data-name="Tracé 249" d="M280.9,131.2a4,4,0,1,0-5.6-.9,4,4,0,0,0,5.6.9h0" style="fill: #fed03b"/>
        <path id="Tracé_250" data-name="Tracé 250" d="M269.8,82a4,4,0,0,0,7.9.1,4,4,0,0,0-4-4h0a3.8,3.8,0,0,0-3.9,3.9" style="fill: #fed03b"/>
        <path id="Tracé_251" data-name="Tracé 251" d="M73.7,96.7a4,4,0,0,0-8,0,4,4,0,0,0,8,0h0" style="fill: #fed03b"/>
        <path id="Tracé_252" data-name="Tracé 252" d="M65.7,140.5a4,4,0,0,0,4-4,3.9,3.9,0,0,0-4-3.9,3.8,3.8,0,0,0-3.9,3.9,3.9,3.9,0,0,0,3.9,4" style="fill: #fed03b"/>
        <path id="Tracé_253" data-name="Tracé 253" d="M61.8,117.2a3.9,3.9,0,0,0,3.9,4,4,4,0,0,0,0-8,3.9,3.9,0,0,0-3.9,4h0" style="fill: #fed03b"/>
        <path id="Tracé_254" data-name="Tracé 254" d="M65.7,157.5a3.9,3.9,0,0,0,4-3.9,4,4,0,0,0-4-4,3.9,3.9,0,0,0-3.9,4h0a3.8,3.8,0,0,0,3.9,3.9" style="fill: #fed03b"/>
        <path id="Tracé_255" data-name="Tracé 255" d="M66.6,173.5a4,4,0,0,0-4,4,4,4,0,0,0,8,0h0a4,4,0,0,0-4-4" style="fill: #fed03b"/>
        <path id="Tracé_256" data-name="Tracé 256" d="M65.7,202.2a4,4,0,0,0,0-8,4,4,0,0,0,0,8" style="fill: #fed03b"/>
        <path id="Tracé_257" data-name="Tracé 257" d="M74.6,56.7a4,4,0,0,0-8,0,4,4,0,0,0,8,0h0" style="fill: #fed03b"/>
        <path id="Tracé_258" data-name="Tracé 258" d="M56.2,46.3a4,4,0,1,0-4,4,4,4,0,0,0,4-4h0" style="fill: #fed03b"/>
        <path id="Tracé_259" data-name="Tracé 259" d="M118.1,96a4,4,0,0,0,0-8,4,4,0,0,0,0,8h0" style="fill: #fed03b"/>
        <path id="Tracé_260" data-name="Tracé 260" d="M68.6,284.7a4,4,0,1,0-4-4,4,4,0,0,0,4,4" style="fill: #fed03b"/>
        <path id="Tracé_261" data-name="Tracé 261" d="M66.3,221.3a4,4,0,0,0,3.4-4.5,4,4,0,0,0-4.5-3.4,3.8,3.8,0,0,0-3.4,4.4h0a4.1,4.1,0,0,0,4.5,3.5" style="fill: #fed03b"/>
        <path id="Tracé_262" data-name="Tracé 262" d="M84.7,20a4,4,0,1,0,4,4,4,4,0,0,0-4-4h0" style="fill: #fed03b"/>
        <path id="Tracé_263" data-name="Tracé 263" d="M80.7,129.6a4,4,0,1,0-4-4h0a4,4,0,0,0,4,4h0" style="fill: #fed03b"/>
        <path id="Tracé_264" data-name="Tracé 264" d="M77.7,76.7a4,4,0,1,0-4,4,4,4,0,0,0,4-4h0" style="fill: #fed03b"/>
        <path id="Tracé_265" data-name="Tracé 265" d="M261.9,72.1a4,4,0,0,0-4-4,4,4,0,1,0,0,7.9h0a3.9,3.9,0,0,0,4-3.9" style="fill: #fed03b"/>
        <path id="Tracé_266" data-name="Tracé 266" d="M67.8,243.6a4,4,0,1,0-4-4h0a4.1,4.1,0,0,0,4,4" style="fill: #fed03b"/>
        <path id="Tracé_267" data-name="Tracé 267" d="M68.7,30.5a4,4,0,0,0-4,4,3.9,3.9,0,0,0,4,3.9,4,4,0,1,0,0-7.9h0" style="fill: #fed03b"/>
        <path id="Tracé_268" data-name="Tracé 268" d="M118.3,206.2a4,4,0,1,0,4,4h0a4,4,0,0,0-4-4" style="fill: #fed03b"/>
        <path id="Tracé_269" data-name="Tracé 269" d="M126.1,72.7a4,4,0,1,0-4,4h0a4,4,0,0,0,4-4h0" style="fill: #fed03b"/>
        <path id="Tracé_270" data-name="Tracé 270" d="M122.1,45.6a4,4,0,1,0,4,4h0a4,4,0,0,0-4-4h0" style="fill: #fed03b"/>
        <path id="Tracé_271" data-name="Tracé 271" d="M117.6,131.9a4,4,0,0,0,4-4,4,4,0,0,0-8,0,4,4,0,0,0,4,4" style="fill: #fed03b"/>
        <path id="Tracé_272" data-name="Tracé 272" d="M118.1,22.5a4,4,0,0,0,0,8,4,4,0,0,0,4-4h0a4,4,0,0,0-4-4" style="fill: #fed03b"/>
        <path id="Tracé_273" data-name="Tracé 273" d="M117.6,152.5a4,4,0,1,0-4-4h0a4,4,0,0,0,4,4" style="fill: #fed03b"/>
        <path id="Tracé_274" data-name="Tracé 274" d="M123.7,298.2a4,4,0,1,0-4-4,4,4,0,0,0,4,4" style="fill: #fed03b"/>
        <path id="Tracé_275" data-name="Tracé 275" d="M108.4,311.5a4,4,0,0,0,0-8,4,4,0,0,0,0,8h0" style="fill: #fed03b"/>
        <path id="Tracé_276" data-name="Tracé 276" d="M119.7,253a4,4,0,1,0-4-4h0a4.1,4.1,0,0,0,4,4" style="fill: #fed03b"/>
        <path id="Tracé_277" data-name="Tracé 277" d="M118.3,233.3a4,4,0,1,0-4-4,4,4,0,0,0,4,4" style="fill: #fed03b"/>
        <path id="Tracé_278" data-name="Tracé 278" d="M119.5,4.6a4,4,0,1,0,4,4,4,4,0,0,0-4-4h0" style="fill: #fed03b"/>
        <path id="Tracé_279" data-name="Tracé 279" d="M121.6,278.6a4,4,0,1,0-4-4h0a4,4,0,0,0,4,4h0" style="fill: #fed03b"/>
        <path id="Tracé_280" data-name="Tracé 280" d="M116.5,173.8a4,4,0,0,0,0-8,3.9,3.9,0,0,0-3.9,4h0a3.9,3.9,0,0,0,3.9,4" style="fill: #fed03b"/>
        <path id="Tracé_281" data-name="Tracé 281" d="M117.6,195.7a4,4,0,1,0-4-4h0a4,4,0,0,0,4,4" style="fill: #fed03b"/>
      </g>
    </g>
  </g>
</svg>
