<svg xmlns="http://www.w3.org/2000/svg" width="957.9" height="991" viewBox="0 0 957.9 991">
  <g id="Calque_2" data-name="Calque 2">
    <g id="Calque_1-2" data-name="Calque 1">
      <path id="Tracé_51" data-name="Tracé 51" d="M16.8,371.3c21.6-80.6,63.9-155.3,125.1-218C260.4,31.8,431.2-22.3,598.8,8.5a14.2,14.2,0,1,1-5.1,28h0C435.4,7.4,274.1,58.5,162.3,173.2S6.1,443,39.1,600.7C74.8,764.8,196.2,896.3,355.8,943.6c151.4,44.8,311.5,8.9,428.3-96s166-252.7,137.6-407.9c-30.2-156-142.5-281.5-293-327.2C471.4,70.4,320.8,106,215.5,210.3,111.9,313,70.1,464.4,106.5,605.5c35.4,132.2,138.1,238.2,268,276.4,132.1,39.1,270.9,6.8,371.3-86.5,97.6-90.7,138.8-223.7,110.1-355.8-29.2-127.2-124-229.1-247.5-266C475.5,138,348.1,168.8,259,257.9a346.7,346.7,0,0,0-89.5,334c30,108.3,114.5,195.5,220.7,227.5,112.2,34.3,229.6,6.8,314.2-73.5,81.8-77.5,114.1-190.1,86.4-301.2-25.4-99.8-105-182.2-202.6-210-110.5-29.6-216.1-2.3-289.5,74.8-70.3,73.9-94.5,180.5-63.2,278.2,28.4,85.4,99.2,151.9,185,173.4,88.2,22.8,179.3-1.8,243.7-65.8,62.6-62.2,86-147.6,64.3-234.5-24.7-89.6-92.8-152.2-187-172-77.2-12.7-153.7,15.3-204.5,74.7-49.4,57.7-63.9,132.6-39.8,205.6C318.7,631.9,371,681.4,433.7,698a190.7,190.7,0,0,0,186.2-49.4c47.1-47.5,63.3-112.2,44.7-177.4C644.9,409,599.5,368.1,533.4,352.9c-47.7-11-103,6.7-140.9,45.1-21.5,21.8-55,68.9-37.8,139.4,11.6,44.9,45.1,81.7,87.4,96A126.2,126.2,0,0,0,570,607.5c32.7-29.8,45-71.9,33.7-115.5-9.9-36.3-40.2-65.9-75.5-73.6l-.7-.2c-32.9-8.8-68.5,1.6-90.5,26.7-18.4,20.9-26.6,49.1-21.5,73.7s20.9,41.8,46.3,53.7c20.6,8.3,45.2,4.4,62.8-9.9,8.9-7.3,23.2-23.7,18.2-50.6-3.3-16.6-17.8-30.7-33.1-32a14.3,14.3,0,0,1-13-15.4,14.2,14.2,0,0,1,15.3-13h.2c27.6,2.4,52.8,26,58.6,54.9,5.7,30.5-4.6,58.9-28.2,78.2-25.6,20.8-61.7,26.4-91.9,14.1l-.6-.3c-33.6-15.6-55.8-41.9-62.5-73.9-7-33.7,3.4-70.4,28-98.3,29.1-33.1,75.7-47,119-35.5,45.2,10,84,47.8,96.7,94.1,13.8,53.5-2,107.2-42.1,143.9a154.7,154.7,0,0,1-156.4,31.7c-51.2-17.2-91.8-61.7-105.7-116-15-61.5,1.5-122,45.2-166.3s110.3-66,167.5-52.8c75.5,17.3,129.5,66.2,152,137.6,0,.1.1.2.1.3,21.4,74.4,2,151.3-51.7,205.5a219.1,219.1,0,0,1-214,56.9c-71.6-19-131.4-75.5-156-147.4-27.3-82.7-10.9-167.6,45.1-233.1,57.5-67.2,143.9-98.7,231.1-84.3h.6c105.3,22,181.4,92.2,209,192.7,0,.1.1.2.1.3,23.9,95.4-2.9,193.2-71.9,261.7-71.5,71.1-172.7,98.5-270.7,73.2-95.1-23.8-173.6-97.5-205-192.2-34.7-107.7-8-225.2,69.6-306.6,79.6-83.7,198.4-114.6,317.6-82.6,107.5,30.5,194.8,120.9,222.7,230.5C848.6,559,813.3,681.9,724,766.6a347.1,347.1,0,0,1-342,80.1C266.5,811.9,174.6,717.1,142.1,599.4a375.2,375.2,0,0,1,96.7-361.6c96.6-96.6,234.1-130,377.2-91.6h.4C749.8,186,852.2,296,883.7,433.4c30.9,142.2-13.4,285.2-118.5,382.8-107.9,100.2-256.9,135-398.8,93.1C227.1,868.2,116.9,754.6,79,612.7,40,461.8,84.7,299.9,195.5,190.1,308.2,78.4,468.9,40.1,636.3,85l.4.2A449.1,449.1,0,0,1,842.4,217.3,458.3,458.3,0,0,1,949.7,434.4c15.4,84.5,9.2,166.7-18.6,244.5-25.8,72.2-70,137.8-127.9,189.9C678.9,980.4,508.7,1018.5,347.7,970.9,178.1,920.6,49.2,781,11.2,606.7-5.6,526.2-3.3,446.2,16.8,371.3" style="fill: #fed03b"/>
    </g>
  </g>
</svg>
