<svg xmlns="http://www.w3.org/2000/svg" xmlns:xlink="http://www.w3.org/1999/xlink" width="493.75" height="472.166" viewBox="0 0 493.75 472.166"><defs><clipPath id="a"><rect width="383.034" height="324.066" fill="#6acded"/></clipPath></defs><g transform="translate(0 191.517) rotate(-30)" clip-path="url(#a)"><path d="M22.753,303.856c23.046,2.051,46.855,6.061,70.017,5.219,11.021-.4,21.565-3.649,32.515-4.509,11.912-.935,23.819,1.477,35.688,2.168,45.981,2.68,91.625-7.366,137.6-5.073a214.7,214.7,0,0,1,36.814,5.128c3.511.8,9.729,3.327,12.187-.992,2.609-4.584-3.112-8.842-5.747-11.557-8.376-8.633-14.96-18.563-20.973-28.935-23.693-40.861-44.841-83.426-64.818-126.207-10.6-22.7-19.105-47.4-32.672-68.542C210.624,50.7,193.5,33.854,185.271,11.327c-.46-1.258-2.526-1.546-2.852,0C179.519,25.052,176.121,38.5,167.7,50c-7.5,10.242-15.926,19.4-22.691,30.217-15.033,24.034-26.355,50.411-39.437,75.528C78.913,206.937,49.94,256.9,19.345,305.836a1.491,1.491,0,0,0,1.278,2.229q85.06-5.512,170.36-2.72c27.984.949,55.866,3.079,83.813,4.69,25.878,1.487,51.784,1.424,77.072-4.887a1.5,1.5,0,0,0,.353-2.7c-22.212-15.38-31.669-42.429-42.79-65.881q-18.5-39.018-39.13-76.973-20.59-37.888-43.244-74.6-11.552-18.715-23.628-37.1Q197.9,39.472,192.258,31.12c-2.7-3.992-5.069-9.232-9.084-12.058a1.487,1.487,0,0,0-1.793.229c-3.672,3.785-5.349,9.887-7.6,14.607l-9.739,20.4q-9.695,20.3-19.389,40.6c-12.534,26.233-25.125,52.436-38.4,78.3-26.59,51.835-56.065,102.358-92.6,147.888a1.493,1.493,0,0,0,1.438,2.473,417.891,417.891,0,0,1,89.071-5.122c28.925,1.248,57.58-2.72,86.462-1.966,28.854.755,57.483,5.512,86.377,5.341,28.166-.168,55.915-5.42,83.288-11.642a1.492,1.492,0,0,0,.882-2.171c-31.25-53.815-63.373-107.236-92.783-162.088-25.8-48.121-48.638-98.558-85.178-139.805a1.493,1.493,0,0,0-2.524,1.047c1.014,16.027-11.4,26.8-20.813,38.122-8.445,10.155-14.465,21.675-19.872,33.672a552.314,552.314,0,0,1-44.293,79.831c-16.839,25.316-32.668,50.7-45.89,78.127C36.616,264.3,24.212,292.159,6.065,316.751a1.5,1.5,0,0,0,.531,2.023c9.506,6.223,23.766,4.463,34.6,4.643,15.9.264,31.8-.142,47.7-.627,31.475-.96,62.755-1.408,94.225.022,31.718,1.442,63.045,2.2,94.7-.885,32.5-3.165,65.069-7.619,97.611-2.349,1.118.18,2.511-1.012,1.671-2.175-19.892-27.509-39.818-55.058-57.444-84.1-16.924-27.88-31.706-57.048-49.8-84.217-17.614-26.44-36.538-50.691-48.04-80.652C212.642,44.565,205.125,19.642,187.43.428a1.491,1.491,0,0,0-2.473.653c-6.984,29.1-24.505,53.2-42.189,76.731-17.9,23.823-35.045,48.143-50.993,73.321A1054.008,1054.008,0,0,0,9.294,310.171c-.732,1.759,2.13,2.523,2.852.789a1049.151,1049.151,0,0,1,85.988-164.3c16.044-24.951,33.422-48.867,51.147-72.636,16.466-22.079,32.018-45.019,38.53-72.159-.824.217-1.649.438-2.473.653,19.482,21.15,26.278,49.393,37.027,75.3,11.552,27.84,30.606,50.827,46.958,75.837,17.533,26.815,32.059,55.428,48.756,82.75,17.387,28.45,36.934,55.488,56.46,82.486q.834-1.083,1.671-2.173c-49.273-7.976-98.83,5.077-148.268,4.69-26.01-.2-51.961-2.313-77.967-2.69-25.462-.367-50.9.939-76.35,1.532-12.715.3-25.436.43-38.151.085-5.522-.15-11.12-.178-16.616-.755-2.623-.278-8.372.266-8.2-4.1.055-1.4,5.01-7.215,5.826-8.459,12.618-19.206,22.3-40.128,32.164-60.82,10.005-20.989,20.646-41.425,33.2-61.016,12.62-19.683,26.225-38.747,38.084-58.917C132.485,104.926,140.191,81.131,152.949,60c10.216-16.924,32.083-31.012,30.7-52.839q-1.263.521-2.526,1.045c28.174,31.8,48.226,69.305,67.712,106.782,20.91,40.222,43.094,79.654,65.854,118.856q17.191,29.608,34.384,59.211c1.325,2.284,8.3,11.625,7.175,14.135-1.193,2.663-12.171,3.536-15.407,4.193a394.454,394.454,0,0,1-39.169,6.14c-45.9,4.57-91.418-6.063-137.352-3.515-25.278,1.4-49.91,1.8-75.214.795-25.409-1.01-49.786,1.724-74.794,5.911q.719,1.24,1.438,2.475C70.779,254.6,109.5,175.316,147.206,96.394q15.36-32.152,30.7-64.305c.605-1.266,2.335-6.124,3.154-6.607,3.106-1.822,3.828.753,5.556,2.588,3.586,3.8,6.329,9.352,9.2,13.674q9.644,14.493,18.961,29.2,37.32,58.907,69.285,120.986c11.258,21.859,21.76,44.052,32.231,66.294,8.392,17.827,17.873,35.319,34.428,46.78q.178-1.352.353-2.7c-26.874,6.708-54.379,6.193-81.821,4.438-27.379-1.747-54.722-3.6-82.15-4.471q-83.261-2.642-166.486,2.846.636,1.112,1.276,2.225c31.258-49.995,60.822-101.064,87.959-153.42,12.987-25.054,24.215-51.448,39.6-75.173,7.433-11.465,17.553-21.076,24.537-32.787,6.159-10.331,8.822-22.2,11.279-33.84h-2.852c6.134,16.8,16.969,30.611,27.61,44.76,12.824,17.052,21.458,35.13,30.124,54.535q27.688,62,59.746,121.913c9.619,17.977,18.786,36.919,31.254,53.142,2.58,3.357,6.305,6.368,8.583,9.871q1.18,1.13,2.359,2.266-1.21,3.121-2.418,6.236c-1.11.613-7.228-1.765-8.773-2.093a202.758,202.758,0,0,0-30.544-3.952c-43.561-2.5-86.8,6.418-130.352,5.357-12.017-.292-23.884-2.292-35.871-2.706-11.765-.406-22.722,2.878-34.311,4.173-25.127,2.8-52.01-2.489-77.072-4.718-1.9-.168-1.884,2.791,0,2.958" transform="translate(5.685 0)" fill="#6acded"/><path d="M351,300.9c-21.76,1.956-43.944,5.368-65.806,5.278-10.449-.043-20.346-2.576-30.623-3.99-10.65-1.465-20.847-.1-31.461.9-44,4.158-87.7-4.8-131.658-4.724a240.411,240.411,0,0,0-32.436,2.093c-3.714.513-7.416,1.128-11.09,1.874-1.42.286-5.394,1.74-7.094,1.59q-6.118,3.464-5.915-5.319,1.172-1.133,2.337-2.266c1.921-3.44,6.146-6.788,8.611-10.021,2.692-3.536,5.169-7.232,7.532-10.993,5.514-8.775,10.376-17.973,15.307-27.083q32.235-59.585,60.2-121.349c9.619-21.251,17.723-43.35,31.26-62.519,11.96-16.932,25.665-32.483,32.812-52.257h-2.854c2.432,11.632,5.059,23.5,11.171,33.84,6.907,11.7,16.928,21.33,24.284,32.787,15.242,23.742,26.34,50.121,39.191,75.173,26.852,52.336,56.117,103.407,87.067,153.42q.639-1.112,1.274-2.225-82.722-5.414-165.683-2.816c-26.852.874-53.62,2.714-80.423,4.442-27.16,1.755-54.4,2.266-80.985-4.438q.178,1.352.353,2.7c14.285-9.99,23.281-24.515,30.832-39.932,9.479-19.354,18.149-39.088,27.74-58.4q30.539-61.5,66.374-120.187,8.576-14.035,17.445-27.888,4.432-6.926,8.938-13.8c3.171-4.84,6.777-12.863,11.114-16.725,2.268-2.018.913-4.619,5.475-2.588.667.3,3.083,6.526,3.12,6.607q3.583,7.576,7.161,15.151,7.677,16.239,15.352,32.481c19.314,40.873,38.491,81.845,59.8,121.726,22.77,42.619,48.117,83.86,78.2,121.74q.719-1.237,1.44-2.475c-20.884-3.534-41.617-6.6-62.858-6.258-22.434.359-44.6,2.122-67.049.751-22.908-1.4-45.3-2.14-68.218-.323-23.1,1.83-46.184,4.662-69.4,3.822a298.257,298.257,0,0,1-37.1-3.875c-4.978-.811-9.936-1.722-14.881-2.7-3.345-.663-17-1.527-18.5-3.956-2.8-4.554,11.475-23.509,14.212-28.272q8.508-14.8,17.015-29.6c22.6-39.325,45.328-78.583,66.179-118.874C140.936,88.592,162.217,44.749,194.254,8.2q-1.263-.524-2.526-1.045c-1.183,18.912,14.816,30.9,25.028,44.725,13.145,17.8,19.541,39.581,29.61,59.079,21.379,41.4,51.046,77.709,71.557,119.669,9.832,20.109,18.731,40.7,29.627,60.274,2.493,4.477,5.081,8.9,7.812,13.244,2.142,3.4,9.984,10.729,5.793,14.4-2.937,2.576-15.687,1.56-19.31,1.686-6.481.223-12.962.308-19.445.31-25.965,0-51.9-1.475-77.855-1.813-25.827-.335-51.557,1.286-77.352,2.217-28.12,1.02-55.685-.623-83.645-3.528-27.485-2.852-54.963-5.187-82.407-.7q.837,1.092,1.671,2.173c18.967-26.5,37.958-53.026,54.91-80.874,16.934-27.813,31.534-57.006,49.235-84.361,15.9-24.561,34.536-47.2,45.891-74.423,10.962-26.28,17.565-55.138,37.238-76.715-.824-.215-1.649-.436-2.473-.653,6.434,27.083,21.813,50.056,38.138,72.159,17.557,23.77,34.753,47.7,50.628,72.636a1053.192,1053.192,0,0,1,85.111,164.3c.716,1.734,3.58.976,2.854-.789A1058.517,1058.517,0,0,0,282.7,151.133c-15.78-25.168-32.753-49.488-50.476-73.321-17.527-23.57-34.858-47.677-41.757-76.731a1.492,1.492,0,0,0-2.473-.653C170.441,19.682,163.027,44.6,153.961,68.436c-11.374,29.917-30.1,54.194-47.549,80.652C88.49,176.271,73.877,205.427,57.117,233.3c-17.449,29.02-37.163,56.58-56.86,84.1-.836,1.168.54,2.357,1.671,2.175,31.568-5.163,63.2-1,94.741,2.16,31.325,3.14,62.272,2.611,93.674,1.164,31.108-1.432,62.014-1.148,93.136-.177,15.559.487,31.13.927,46.7.734,11.327-.14,26.864,1.905,36.83-4.682a1.5,1.5,0,0,0,.531-2.024c-17.642-24.152-29.779-51.4-42.571-78.283-13.3-27.951-29.166-53.86-46.167-79.685A531.242,531.242,0,0,1,235.62,80.459c-5.309-12.025-11.106-23.8-19.425-34.065-9.524-11.745-22.541-22.736-21.509-39.236a1.493,1.493,0,0,0-2.524-1.047C155.521,47.91,132.84,98.984,106.954,147.6,78.072,201.837,46.626,254.737,16.009,308a1.491,1.491,0,0,0,.884,2.171c27.14,6.232,54.643,11.477,82.586,11.642,29.053.174,57.838-4.729,86.858-5.37,28.091-.623,55.941,3.219,84.079,2a409.433,409.433,0,0,1,88.16,5.122,1.493,1.493,0,0,0,1.438-2.473C323.819,275.513,294.664,225,268.363,173.2c-12.869-25.344-25.093-51.007-37.246-76.7q-9.579-20.247-19.141-40.5L202.3,35.548c-2.357-5-4.43-12.218-8.305-16.257a1.494,1.494,0,0,0-1.795-.229c-3.605,2.564-5.542,6.911-7.98,10.542q-6.1,9.1-12.072,18.285-11.955,18.383-23.387,37.1-22.422,36.7-42.8,74.6-20.413,37.947-38.733,76.973c-10.98,23.4-20.3,50.462-42.348,65.881a1.5,1.5,0,0,0,.353,2.7c25.028,6.309,50.667,6.374,76.293,4.887,27.343-1.59,54.622-3.7,82-4.655a1693.017,1693.017,0,0,1,169.583,2.684,1.492,1.492,0,0,0,1.28-2.229c-30.3-48.947-58.972-98.915-85.355-150.089-12.686-24.612-23.724-50.346-38.122-74.025C224,70.337,215.3,60.734,207.543,50c-8.337-11.536-11.7-24.959-14.565-38.676-.323-1.542-2.394-1.26-2.854,0-7.049,19.5-20.721,34.856-32.513,51.549-12.833,18.17-20.63,38.919-29.71,59.083q-29.362,65.2-63.542,128.09c-4.873,8.966-9.7,18.011-15.285,26.558A116.33,116.33,0,0,1,37.41,291.889c-2.412,2.613-6.392,5.126-7.757,8.568-5.534,13.96,21.776,4.15,26.188,3.442,47.062-7.562,94.562,3.248,141.746,3.294,13.338.014,26.369-1.671,39.636-2.576,11.749-.8,22.6,1.866,34.12,3.5,25.906,3.684,53.778-1.933,79.661-4.262,1.882-.17,1.9-3.13,0-2.958" transform="translate(0 0)" fill="#6acded"/></g></svg>