<?xml version="1.0" standalone="no"?>
<!DOCTYPE svg PUBLIC "-//W3C//DTD SVG 20010904//EN"
 "http://www.w3.org/TR/2001/REC-SVG-20010904/DTD/svg10.dtd">
<svg version="1.0" xmlns="http://www.w3.org/2000/svg"
 width="700.000000pt" height="700.000000pt" viewBox="0 0 700.000000 700.000000"
 preserveAspectRatio="xMidYMid meet">
<metadata>
Created by potrace 1.14, written by Peter Selinger 2001-2017
</metadata>
<g transform="translate(0.000000,700.000000) scale(0.100000,-0.100000)"
fill="#000000" stroke="none">
<path d="M5252 6830 c-113 -24 -246 -129 -296 -234 -156 -330 111 -690 471
-634 107 17 223 91 284 183 169 251 52 582 -240 674 -48 15 -169 21 -219 11z"/>
<path d="M3357 6394 c-1 -1 -36 -4 -77 -8 -68 -5 -108 -11 -220 -31 -125 -22
-320 -90 -462 -160 -446 -221 -789 -602 -962 -1068 -35 -92 -83 -275 -92 -342
-2 -16 -6 -41 -9 -55 -16 -81 -22 -309 -11 -440 69 -824 680 -1531 1484 -1714
186 -43 283 -53 479 -50 87 1 190 7 228 13 39 7 84 14 100 17 56 9 190 45 280
76 388 132 749 415 980 768 141 215 253 508 291 757 3 21 8 49 11 63 12 59 11
379 -2 470 -63 450 -230 799 -535 1116 -308 322 -746 536 -1185 580 -61 6
-293 12 -298 8z m303 -719 c134 -25 292 -83 410 -151 334 -192 564 -544 607
-929 33 -292 -38 -577 -208 -833 -63 -95 -230 -261 -327 -326 -135 -89 -336
-172 -459 -190 -24 -3 -62 -9 -85 -13 -54 -8 -240 -8 -293 0 -377 56 -680 244
-881 547 -82 122 -129 232 -171 394 -23 89 -27 121 -27 266 -1 182 3 215 37
340 54 192 162 386 291 522 189 200 453 338 722 377 64 9 327 7 384 -4z"/>
<path d="M3239 2196 c-2 -2 -39 -7 -83 -10 -43 -3 -88 -8 -100 -11 -11 -2 -39
-6 -61 -9 -22 -3 -76 -12 -120 -21 -44 -10 -87 -18 -95 -20 -109 -22 -430
-137 -467 -167 -7 -6 -13 -7 -13 -3 0 4 -6 3 -12 -3 -11 -9 -58 -36 -133 -77
-104 -56 -271 -192 -385 -311 -265 -278 -461 -661 -524 -1024 -3 -19 -8 -46
-11 -59 -9 -47 -19 -168 -19 -241 l-1 -75 348 -2 c191 -1 347 1 348 5 0 4 2
34 4 67 33 508 341 949 790 1131 74 30 229 79 279 88 11 2 41 7 66 11 25 4 54
9 65 11 91 18 433 24 580 11 83 -7 106 -11 191 -28 28 -5 63 -12 77 -15 130
-23 332 -110 472 -202 90 -59 256 -225 322 -322 142 -210 226 -460 236 -707 1
-23 5 -44 9 -48 4 -5 524 -9 681 -5 17 0 18 8 12 98 -5 86 -9 128 -20 197 -12
86 -17 115 -27 150 -5 22 -12 50 -14 63 -13 68 -90 275 -143 383 -187 383
-481 693 -831 876 -171 90 -393 170 -575 207 -109 23 -125 26 -205 36 -41 6
-88 13 -105 16 -34 6 -531 15 -536 10z"/>
</g>
</svg>
