<svg xmlns="http://www.w3.org/2000/svg" xmlns:xlink="http://www.w3.org/1999/xlink" width="106.37" height="106.667" viewBox="0 0 106.37 106.667"><defs><clipPath id="a"><rect width="106.37" height="106.667" fill="none"/></clipPath></defs><g clip-path="url(#a)"><path d="M89.825,0H16.545A16.546,16.546,0,0,0,0,16.545V60.652A16.55,16.55,0,0,0,13.883,76.984c.867.14-.678,29.682.228,29.682L39.286,77.2H89.825A16.545,16.545,0,0,0,106.37,60.652V16.545A16.545,16.545,0,0,0,89.825,0M32.069,43.618a5.107,5.107,0,1,1,5.107-5.106,5.107,5.107,0,0,1-5.107,5.106m21.336,0a5.107,5.107,0,1,1,5.107-5.106,5.107,5.107,0,0,1-5.107,5.106m21.336,0a5.107,5.107,0,1,1,5.107-5.106,5.107,5.107,0,0,1-5.107,5.106" fill="#ffd03c"/></g></svg>