<svg xmlns="http://www.w3.org/2000/svg" width="61" height="34.105" viewBox="0 0 61 34.105"><path d="M57.015,36.571h0a2.389,2.389,0,0,1,1.054,1.941,1.081,1.081,0,0,1-.055.444L55.129,52.875h0a2.32,2.32,0,0,1-2.274,1.83h0a1.994,1.994,0,0,1-.61-.111,77.845,77.845,0,0,0-17.8-2.5,80.478,80.478,0,0,0-17.8,2.5h0a2.359,2.359,0,0,1-.61.111,2.32,2.32,0,0,1-2.274-1.83L10.876,38.955h0a1.535,1.535,0,0,1-.055-.5,2.343,2.343,0,0,1,2.329-2.329,2.316,2.316,0,0,1,1.275.388,8.682,8.682,0,0,0,5.934,1.165c3.993-.5,8.1-2.717,12.477-6.765h0a2.425,2.425,0,0,1,3.216,0c4.381,4.048,8.485,6.266,12.477,6.765a8.682,8.682,0,0,0,5.934-1.165h0a2.158,2.158,0,0,1,1.275-.388,2.222,2.222,0,0,1,1.275.444Zm-4.492,5.656h.111a15.284,15.284,0,0,1-2.828.277c-.721,0-1.386-.055-2-.111-4.492-.555-8.873-2.717-13.42-6.6-4.547,3.826-8.984,5.989-13.42,6.6h.055c-.665,0-1.331.055-2.052.055a14.093,14.093,0,0,1-2.717-.277l1.553,7.375A80.167,80.167,0,0,1,34.445,47.5a80.693,80.693,0,0,1,16.636,2.052l1.442-7.32Zm8.485-13.919A3.976,3.976,0,0,1,65,32.3h0a3.993,3.993,0,1,1-3.993-3.993Zm-53.292.776h0A3.716,3.716,0,0,1,11.431,32.8h0a3.715,3.715,0,1,1-3.715-3.715Zm26.452-.5a3.976,3.976,0,0,1-3.993-3.993h0a3.993,3.993,0,1,1,3.993,3.993Z" transform="translate(-4 -20.6)"/></svg>