<svg xmlns="http://www.w3.org/2000/svg" width="52.975" height="37.5" viewBox="0 0 52.975 37.5"><path d="M30.535,21.585h0A8.276,8.276,0,0,1,38.747,29.8h0a8.212,8.212,0,1,1-8.212-8.212ZM30.44,32.693h.095a2.963,2.963,0,0,0,2.943-2.8h0V29.8a2.9,2.9,0,0,0-5.791,0,2.817,2.817,0,0,0,2.753,2.9Zm26.535-.854-13.2,11.155h0A18.535,18.535,0,0,1,30.535,48.5H30.44a18.424,18.424,0,0,1-13.2-5.506l-.095-.095L4,31.839,17.386,16.364h0A18.639,18.639,0,0,1,30.487,11h.095a18.526,18.526,0,0,1,13.054,5.364l.142.142Zm-7.453-.522-9.684-11.2h0a13.38,13.38,0,0,0-9.3-3.75h-.142a13.38,13.38,0,0,0-9.3,3.75L11.453,31.269l9.541,8.022h0a13.492,13.492,0,0,0,9.541,3.892h.095a13.468,13.468,0,0,0,9.446-3.892l.475-.427Z" transform="translate(-4 -11)" fill="#232323"/></svg>