<svg xmlns="http://www.w3.org/2000/svg" width="172.667" height="61.384" viewBox="0 0 172.667 61.384"><g transform="translate(0)"><path d="M66.85,21.666a9.851,9.851,0,1,1-9.844,9.858h0a9.858,9.858,0,0,1,9.844-9.858m0-5.616A15.46,15.46,0,1,0,82.31,31.51,15.46,15.46,0,0,0,66.85,16.05h0" transform="translate(-14.248 -4.45)" fill="#00ef88"/><path d="M18.84,21.666A9.851,9.851,0,1,1,9,31.524H9a9.858,9.858,0,0,1,9.844-9.858m0-5.616A15.46,15.46,0,1,0,34.3,31.51,15.46,15.46,0,0,0,18.84,16.05h0" transform="translate(-0.937 -4.45)" fill="#00ef88"/><path d="M44.4,11.169a3.513,3.513,0,1,1-3.513,3.484h0a3.505,3.505,0,0,1,3.5-3.513h0" transform="translate(-11.337 -3.088)" fill="#00ef88"/><path d="M30.674,66.792c-2.934-2.783-7.459-4.4-12.764-4.4s-9.829,1.619-12.771,4.4A16.146,16.146,0,0,0,0,78.681H5.6a10.711,10.711,0,0,1,3.245-7.654C10.82,69.155,13.667,68,17.91,68s7.083,1.156,9.056,3.028a10.711,10.711,0,0,1,3.245,7.654h5.6a16.146,16.146,0,0,0-5.139-11.889" transform="translate(0 -17.297)" fill="#00ef88"/><rect width="5.551" height="29.235" transform="translate(101.706 12.439)" fill="#273133"/><path d="M143.213,0A3.513,3.513,0,1,1,139.7,3.513h0A3.52,3.52,0,0,1,143.213,0" transform="translate(-38.731)" fill="#273133"/><path d="M173.37,46.46l11.514-29.25h-5.992L170.24,39.774,161.582,17.21H155.59L167.1,46.46Z" transform="translate(-43.136 -4.771)" fill="#273133"/><path d="M227.349,31.545a15.07,15.07,0,0,0-4.127-10.986,14.542,14.542,0,0,0-10.559-4.38A15.387,15.387,0,0,0,197.29,31.545c0,8.622,7.1,15.135,16.161,15.135h3.455V41.115h-3.44c-4.669,0-8.435-2.219-9.866-6.194H226.93a14.8,14.8,0,0,0,.434-3.375m-24.176-2.219a9.663,9.663,0,0,1,9.49-7.719,8.724,8.724,0,0,1,8.977,7.719Z" transform="translate(-54.697 -4.485)" fill="#273133"/><path d="M113.02,36.133c-3.014,0-4.214-1.554-4.214-4.438V.4H102.93V31.7c0,3.093.8,5.89,2.595,7.647s4.467,2.443,7.495,2.443h12.128V36.133Z" transform="translate(-28.537 -0.111)" fill="#273133"/></g></svg>